<svg width="64" height="64" viewBox="0 0 64 64" fill="none" xmlns="http://www.w3.org/2000/svg">
  <rect x="4" y="4" width="56" height="56" rx="18" fill="#FBF6EE"/>
  <rect x="4.75" y="4.75" width="54.5" height="54.5" rx="17.25" stroke="#E7D8C3" stroke-width="1.5"/>

  <path d="M9 47C14.8 39.6 21.4 39 27.2 43.3C30.8 46 34 46.1 37.5 43.7C43.2 39.8 49.1 39.8 55 45.5" stroke="#D8CAB5" stroke-width="2.2" stroke-linecap="round"/>
  <path d="M17 22C21.8 17.4 26.9 17.2 32 21.2C36.4 24.6 41 24.8 46 20.4" stroke="#C5D8C8" stroke-width="1.9" stroke-linecap="round"/>
  <circle cx="9.5" cy="47" r="2.3" fill="#E8A98C"/>
  <circle cx="27.8" cy="43.2" r="1.9" fill="#D9A2C0"/>
  <circle cx="55" cy="45.5" r="2.3" fill="#A9C996"/>
  <circle cx="46.5" cy="20.2" r="1.9" fill="#9FC0E4"/>

  <g stroke="#E5A07E" stroke-width="2" stroke-linejoin="round">
    <path d="M16 16L21.8 19.4L16 22.8L10.2 19.4L16 16Z" fill="#FFF9F2"/>
    <path d="M10.2 19.4V27.6L16 31V22.8L10.2 19.4Z" fill="#FFF9F2"/>
    <path d="M21.8 19.4V27.6L16 31V22.8L21.8 19.4Z" fill="#FFF9F2"/>
  </g>

  <g stroke="#D4B164" stroke-width="2" stroke-linejoin="round">
    <path d="M32 11L37.8 14.4L32 17.8L26.2 14.4L32 11Z" fill="#FFF9F2"/>
    <path d="M26.2 14.4V22.6L32 26V17.8L26.2 14.4Z" fill="#FFF9F2"/>
    <path d="M37.8 14.4V22.6L32 26V17.8L37.8 14.4Z" fill="#FFF9F2"/>
  </g>

  <g stroke="#93B8DE" stroke-width="2" stroke-linejoin="round">
    <path d="M48 18L53.8 21.4L48 24.8L42.2 21.4L48 18Z" fill="#FFF9F2"/>
    <path d="M42.2 21.4V29.6L48 33V24.8L42.2 21.4Z" fill="#FFF9F2"/>
    <path d="M53.8 21.4V29.6L48 33V24.8L53.8 21.4Z" fill="#FFF9F2"/>
  </g>

  <path d="M17.4 41.5C21.1 38.8 24.9 38.8 28.6 41.5" stroke="#E4C98E" stroke-width="1.7" stroke-linecap="round"/>
  <path d="M35.2 38.2C38.3 35.7 41.6 35.7 44.8 38.2" stroke="#C2D7CF" stroke-width="1.7" stroke-linecap="round"/>
</svg>
