<svg width="1024" height="1024" viewBox="0 0 1024 1024" fill="none" xmlns="http://www.w3.org/2000/svg">
  <rect width="1024" height="1024" fill="#12202A"/>
  <circle cx="512" cy="512" r="326" stroke="#EAE2D6" stroke-width="24" opacity="0.9"/>
  <path d="M258 407C319.439 311.744 421.431 248 538.31 248C633.623 248 719.052 290.321 780 358.184" stroke="#687A52" stroke-width="58" stroke-linecap="round"/>
  <path d="M756 618C690.84 717.771 578.184 784 450.057 784C352.047 784 264.965 745.257 204 676.706" stroke="#D86A4A" stroke-width="58" stroke-linecap="round"/>
  <path d="M319 695C268.546 646.2 237 577.799 237 502.029C237 460.633 246.412 421.437 263.186 386.457" stroke="#F7F2EA" stroke-width="28" stroke-linecap="round" opacity="0.9"/>
  <path d="M706 329C757.835 377.847 790 446.862 790 523.392C790 566.31 779.886 606.865 761.882 642.89" stroke="#F7F2EA" stroke-width="28" stroke-linecap="round" opacity="0.9"/>
  <circle cx="512" cy="512" r="94" stroke="#EAE2D6" stroke-width="18" opacity="0.95"/>
  <circle cx="512" cy="512" r="24" fill="#EAE2D6"/>
</svg>
